<svg xmlns="http://www.w3.org/2000/svg" width="522" height="615.958" viewBox="0 0 522 615.958">
  <g id="empty-search-state" transform="translate(-384 -120)">
    <rect id="Rectangle_11" data-name="Rectangle 11" width="522" height="73" rx="5" transform="translate(384 120)" fill="#ebebeb"/>
    <rect id="Rectangle_12" data-name="Rectangle 12" width="177" height="18" rx="2" transform="translate(416 148)" fill="#272727"/>
    <g id="undraw_People_search_re_5rre" transform="translate(408.998 77)">
      <path id="Path_12" data-name="Path 12" d="M443.285,359.521a44.193,44.193,0,1,0-76.369,41.98c.4.5.809,1,1.229,1.483.032.032.055.063.087.1a42.934,42.934,0,0,0,3.292,3.4c.3.278.619.563.936.833.6.539,1.222,1.055,1.864,1.547a43.464,43.464,0,0,0,3.919,2.753l.048.024c.88.547,1.777,1.055,2.689,1.539l.373.19c.857.444,1.729.865,2.626,1.253.182.079.381.159.563.238.016.008.024.008.04.016a42.928,42.928,0,0,0,5.569,1.88,44.211,44.211,0,0,0,11.4,1.491c1.4,0,2.792-.063,4.165-.2a44.033,44.033,0,0,0,9.234-1.864c.008,0,.016-.008.024-.008a43.313,43.313,0,0,0,5.545-2.2c.008-.008.024-.008.032-.016.4-.19.793-.4,1.19-.6l.191-.1c.317-.167.634-.333.952-.508.793-.436,1.571-.9,2.34-1.388.214-.127.42-.262.634-.4.7-.46,1.388-.952,2.054-1.452.119-.087.246-.174.365-.27a44.179,44.179,0,0,0,15.009-49.723Zm-16.469,47.8c-.262.206-.531.4-.8.587-.262.2-.524.389-.793.563-.23.167-.46.325-.7.476-.2.135-.4.262-.6.389q-.987.619-2,1.19l-.215.119c-.3.167-.6.325-.9.484-.04.024-.088.04-.127.063l-.048.024c-.381.2-.769.389-1.158.571a38.891,38.891,0,0,1-4.625,1.872c-.206.071-.413.143-.619.206a41.615,41.615,0,0,1-8.742,1.777c-1.3.119-2.618.182-3.943.182a41.21,41.21,0,0,1-10.781-1.412,39.176,39.176,0,0,1-5.291-1.793c-.182-.071-.365-.151-.54-.222-.095-.04-.182-.079-.278-.127-.746-.325-1.483-.682-2.205-1.055l-.349-.182c-.88-.46-1.745-.952-2.586-1.475-.309-.19-.619-.389-.92-.6-.952-.627-1.88-1.3-2.785-2.007-.611-.46-1.2-.952-1.769-1.46-.3-.254-.6-.531-.88-.793a40.352,40.352,0,0,1-3.189-3.3c-.333-.381-.659-.762-.968-1.158a3.024,3.024,0,0,1-.2-.246,41.773,41.773,0,1,1,58,7.322Z" transform="translate(-299.638 -117.897)" fill="#3f3d56"/>
      <path id="Path_18" data-name="Path 18" d="M475.484,296.608A103.863,103.863,0,1,0,481.373,450l127.4,107.5a9.571,9.571,0,0,0,12.359-14.618l-.014-.012-127.4-107.5a103.869,103.869,0,0,0-18.233-138.759Zm-8.213,128.408a77.815,77.815,0,1,1-9.29-109.654h0a77.815,77.815,0,0,1,9.29,109.654Z" transform="translate(-304.638 -120.319)" fill="#272727"/>
      <path id="Path_19" data-name="Path 19" d="M357.617,434.306a77.819,77.819,0,0,1-13.2-104.608q-2.232,2.248-4.315,4.708A77.815,77.815,0,0,0,459.041,434.769q2.078-2.463,3.915-5.046A77.819,77.819,0,0,1,357.617,434.306Z" transform="translate(-304.638 -120.319)" opacity="0.3" style="isolation: isolate"/>
      <path id="Path_20" data-name="Path 20" d="M732.323,561.516a10.743,10.743,0,0,0-3.069-16.184l-23.222-95.049-16.94,5.408,25.076,94.4a10.8,10.8,0,0,0,18.156,11.425Z" transform="translate(-304.638 -120.319)" fill="#ffb6b6"/>
      <path id="Path_21" data-name="Path 21" d="M415.682,380.4l-12.38,10.68-17.32,14.931-7.65-39.14-.8-4.07-.63-3.23L394.452,329l14.63.839,1,.06.02.221.23,2.05,3,26.979.07.651Z" fill="#3f3d56"/>
      <path id="Path_22" data-name="Path 22" d="M334.763,646.074H322.5l-5.833-47.288h18.1Z" fill="#ffb6b6"/>
      <path id="Path_23" data-name="Path 23" d="M642.528,778.277H603v-.5a15.387,15.387,0,0,1,15.385-15.386h24.146Z" transform="translate(-304.638 -120.319)" fill="#272727"/>
      <path id="Path_24" data-name="Path 24" d="M462.763,647.074H450.5l-5.833-47.288h18.1Z" fill="#ffb6b6"/>
      <path id="Path_25" data-name="Path 25" d="M770.528,779.277H731v-.5a15.387,15.387,0,0,1,15.385-15.386h24.146Z" transform="translate(-304.638 -120.319)" fill="#272727"/>
      <path id="Path_26" data-name="Path 26" d="M777.2,748.569l-33,5-48.01-162.48L645.2,754.569l-37-5,48-190v-15l6.5-22.5-.68-6.09-4.73-42.59-2.05-18.47-.133-1.193a4.056,4.056,0,0,1,3.193-4.417h0l15.4-3.24h25.17l14.85,4.09,1.02.28.46.13-.23,1.92-3.48,29.18-.19,1.6-3.36,28.13-.74,6.17c29,21,30,42,30,42Z" transform="translate(-304.638 -120.319)" fill="#272727"/>
      <circle id="Ellipse_6" data-name="Ellipse 6" cx="24.561" cy="24.561" r="24.561" transform="translate(354.044 263.976)" fill="#ffb6b6"/>
      <rect id="Rectangle_10" data-name="Rectangle 10" width="49" height="7" transform="translate(355.816 397.959) rotate(-7.451)" fill="#3f3d56"/>
      <path id="Path_27" data-name="Path 27" d="M595.282,520.371a10.517,10.517,0,0,1,1.316,1.007l48.056-12.251,3.278-11.593,18.143,2.661-3.809,21.088a8,8,0,0,1-7.035,6.534l-56.111,5.909a10.5,10.5,0,1,1-3.839-13.355Z" transform="translate(-304.638 -120.319)" fill="#ffb6b6"/>
      <path id="Path_28" data-name="Path 28" d="M669.2,455.569l-8.5-6.5c-2.3-.872-5.447,1.605-6,4l-12,49,25,18,3.5-5.5Z" transform="translate(-304.638 -120.319)" fill="#3f3d56"/>
      <g id="Group_1" data-name="Group 1" opacity="0.2">
        <path id="Path_29" data-name="Path 29" d="M717.97,479.468a67.685,67.685,0,0,1-6.48,2.2c-.7.21-1.42.41-2.13.6a66.022,66.022,0,0,1-14.34,2.32,45.147,45.147,0,0,1-6.26-.17,35.241,35.241,0,0,1-6.59-1.3l-.22-.06a28.906,28.906,0,0,1-11.95-6.79,23.557,23.557,0,0,1-2.11-2.35,21.239,21.239,0,0,1-4.56-16.53,14.142,14.142,0,0,1,.34-1.57,25.105,25.105,0,0,1,1.49-4.1c.27-.62.57-1.23.89-1.83l11.3-3.82h21.52l14.85,4.09,1,.06.02.22.46.13-.23,1.92Z" transform="translate(-304.638 -120.319)"/>
      </g>
      <path id="Path_30" data-name="Path 30" d="M664.423,388.522c-4.593-.563-9.634-.165-13.214,2.767s-4.736,9.028-1.346,12.178c3,2.789,7.693,2.133,11.713,2.926a15.854,15.854,0,0,1,12.384,15.157c-.06,10.174-9.824,17.879-11.578,27.9-1.2,6.84,1.688,14.038,6.675,18.87s11.843,7.443,18.751,8.15,13.893-.373,20.606-2.148c6.741-1.782,13.378-4.311,19.034-8.388s10.293-9.826,12.109-16.558.512-14.451-4.168-19.62c-5.359-5.919-14.274-7.954-18.91-14.456-5.2-7.288-3.274-17.666-7.479-25.567-2.808-5.275-8.125-8.873-13.792-10.769s-11.719-2.27-17.692-2.453c-3.14-.1-6.375-.129-9.3,1.016s-5.5,3.753-5.648,6.891S664.423,388.522,664.423,388.522Z" transform="translate(-304.638 -120.319)" fill="#272727"/>
    </g>
  </g>
</svg>
